<svg width="512" height="512" viewBox="0 0 512 512" fill="none" xmlns="http://www.w3.org/2000/svg">
<g clip-path="url(#clip0_22_538)">
<path d="M394.668 0H117.334C52.6515 0 0.000854492 52.6293 0.000854492 117.333V394.667C0.000854492 459.371 52.6515 512 117.334 512H394.668C459.35 512 512.001 459.371 512.001 394.667V117.333C512.001 52.6293 459.35 0 394.668 0ZM448.001 394.667C448.001 424.064 424.086 448 394.668 448H117.334C87.9155 448 64.0009 424.064 64.0009 394.667V117.333C64.0009 87.936 87.9155 64 117.334 64H394.668C424.086 64 448.001 87.936 448.001 117.333V394.667ZM352.001 106.667L234.668 202.667C234.668 220.331 220.332 234.667 202.668 234.667H138.668C121.004 234.667 106.668 220.331 106.668 202.667V138.667C106.668 121.003 121.004 106.667 138.668 106.667H202.668C220.332 106.667 330.668 106.667 352.001 106.667ZM405.334 138.667V202.667C405.334 220.331 390.998 234.667 373.334 234.667H309.334C291.67 234.667 192.001 234.667 170.668 234.667L277.334 138.667C277.334 121.003 291.67 106.667 309.334 106.667H373.334C390.998 106.667 405.334 121.003 405.334 138.667ZM234.668 309.333L330.668 405.333C320.001 405.333 220.332 405.333 202.668 405.333H138.668C121.004 405.333 106.668 390.997 106.668 373.333V309.333C106.668 291.669 121.004 277.333 138.668 277.333H202.668C220.332 277.333 234.668 291.669 234.668 309.333ZM405.334 309.333V373.333C405.334 390.997 390.998 405.333 373.334 405.333H309.334C291.67 405.333 277.334 390.997 277.334 373.333L181.334 277.333C192.001 277.333 291.67 277.333 309.334 277.333H373.334C390.998 277.333 405.334 291.669 405.334 309.333Z" fill="black"/>
</g>
<defs>
<clipPath id="clip0_22_538">
<rect width="512" height="512" fill="white"/>
</clipPath>
</defs>
</svg>
